<?xml version="1.0" encoding="utf-8"?>
<!-- Generator: Adobe Illustrator 26.1.0, SVG Export Plug-In . SVG Version: 6.00 Build 0)  -->
<svg version="1.1" id="Capa_1" xmlns="http://www.w3.org/2000/svg" xmlns:xlink="http://www.w3.org/1999/xlink" x="0px" y="0px"
	 viewBox="0 0 377.27 147.64" style="enable-background:new 0 0 377.27 147.64;" xml:space="preserve">
<style type="text/css">
	.st0{fill:#FF3E00;stroke:#F45000;stroke-miterlimit:10;}
	.st1{fill:#FF3E00;}
	.st2{fill:#FFFFFF;}
</style>
<g>
	<g>
		<g>
			<g>
				<g>
					<path class="st0" d="M246.27,76.68c-1.41-1.53-3-2.66-4.75-3.4c-1.76-0.74-3.54-1.11-5.34-1.11c-2.22,0-4.36,0.43-6.42,1.28
						c-2.06,0.86-3.69,2.21-4.89,4.06h-0.14V59.47h-9.85v49.55h9.37v-4.58h0.14c1.06,1.99,2.64,3.4,4.72,4.23
						c2.08,0.83,4.44,1.25,7.08,1.25c1.8,0,3.59-0.37,5.34-1.11c1.76-0.74,3.34-1.87,4.75-3.4c1.41-1.53,2.56-3.48,3.43-5.86
						c0.88-2.38,1.32-5.22,1.32-8.5c0-3.28-0.44-6.12-1.32-8.5C248.83,80.16,247.68,78.2,246.27,76.68z M240.69,95.41
						c-0.32,1.39-0.83,2.61-1.53,3.68c-0.69,1.06-1.56,1.91-2.6,2.53c-1.04,0.62-2.3,0.94-3.78,0.94c-1.43,0-2.68-0.31-3.75-0.94
						c-1.06-0.62-1.94-1.47-2.64-2.53c-0.69-1.06-1.2-2.29-1.53-3.68c-0.32-1.39-0.49-2.82-0.49-4.3c0-1.53,0.16-2.98,0.49-4.37
						c0.32-1.39,0.83-2.61,1.53-3.68c0.69-1.06,1.57-1.91,2.64-2.53c1.06-0.62,2.31-0.94,3.75-0.94c1.48,0,2.74,0.31,3.78,0.94
						c1.04,0.62,1.91,1.47,2.6,2.53c0.69,1.06,1.2,2.29,1.53,3.68c0.32,1.39,0.49,2.85,0.49,4.37
						C241.17,92.59,241.01,94.03,240.69,95.41z"/>
					<rect x="261.02" y="59.47" class="st0" width="9.85" height="8.12"/>
					<rect x="261.02" y="73.14" class="st0" width="9.85" height="35.88"/>
					<polygon class="st0" points="316.95,71.46 305.29,71.46 292.87,84.97 292.87,57.15 283.02,57.15 283.02,109.02 292.87,109.02 
						292.87,96.09 296.69,92.24 306.54,109.02 318.48,109.02 303.42,85.26 					"/>
					<path class="st0" d="M358.73,85.49c-0.65-2.54-1.7-4.81-3.16-6.8c-1.46-1.99-3.32-3.57-5.59-4.75
						c-2.27-1.18-4.93-1.77-7.98-1.77c-2.73,0-5.22,0.49-7.46,1.46c-2.24,0.97-4.18,2.3-5.79,3.99c-1.62,1.69-2.87,3.69-3.75,6
						c-0.88,2.31-1.32,4.81-1.32,7.5c0,2.78,0.43,5.32,1.28,7.63c0.86,2.31,2.07,4.3,3.64,5.97c1.57,1.67,3.49,2.95,5.76,3.85
						c2.27,0.9,4.81,1.35,7.63,1.35c4.07,0,7.54-0.92,10.41-2.78c2.87-1.85,5-4.93,6.38-9.23h-8.67c-0.32,1.11-1.2,2.16-2.64,3.16
						c-1.43,1-3.15,1.49-5.14,1.49c-2.78,0-4.9-0.72-6.38-2.15c-1.48-1.43-2.29-3.75-2.43-6.94h25.89
						C359.61,90.7,359.38,88.04,358.73,85.49z M333.54,87.23c0.05-0.69,0.2-1.48,0.45-2.36c0.25-0.88,0.69-1.71,1.32-2.5
						c0.62-0.79,1.46-1.45,2.5-1.98c1.04-0.53,2.35-0.8,3.92-0.8c2.4,0,4.2,0.65,5.38,1.94c1.18,1.3,2,3.19,2.46,5.69H333.54z"/>
				</g>
			</g>
			<g>
				<path d="M48.79,60.45v8.28H27.14v10.36h18.77v7.66H27.14v18.51h-9.85V60.45H48.79z"/>
				<path d="M65.86,60.45v44.81h-8.91V60.45H65.86z"/>
				<path d="M85.57,97.48c1.34,1.3,3.26,1.95,5.77,1.95c1.8,0,3.35-0.45,4.64-1.35c1.3-0.9,2.09-1.85,2.38-2.86h7.85
					c-1.26,3.89-3.18,6.67-5.77,8.35c-2.59,1.67-5.73,2.51-9.41,2.51c-2.55,0-4.85-0.41-6.9-1.22c-2.05-0.82-3.79-1.98-5.21-3.48
					c-1.42-1.51-2.52-3.3-3.29-5.4c-0.77-2.09-1.16-4.39-1.16-6.9c0-2.43,0.4-4.69,1.19-6.78c0.79-2.09,1.92-3.9,3.39-5.43
					c1.46-1.53,3.21-2.73,5.24-3.61c2.03-0.88,4.28-1.32,6.75-1.32c2.76,0,5.17,0.53,7.22,1.6c2.05,1.07,3.73,2.5,5.05,4.3
					c1.32,1.8,2.27,3.85,2.86,6.15c0.59,2.3,0.79,4.71,0.63,7.22H83.37C83.5,94.09,84.23,96.18,85.57,97.48z M95.64,80.41
					c-1.07-1.17-2.69-1.76-4.86-1.76c-1.42,0-2.6,0.24-3.55,0.72c-0.94,0.48-1.69,1.08-2.26,1.79c-0.57,0.71-0.96,1.47-1.19,2.26
					c-0.23,0.79-0.37,1.51-0.41,2.13h14.5C97.45,83.3,96.71,81.58,95.64,80.41z"/>
				<path d="M112.81,72.81h10.17l5.71,8.47l5.65-8.47h9.85L133.52,88l11.99,17.26h-10.17l-6.78-10.23l-6.78,10.23h-9.98l11.67-17.07
					L112.81,72.81z"/>
				<path d="M152.28,69.26v-7.34h8.91v7.34H152.28z M161.2,72.81v32.45h-8.91V72.81H161.2z"/>
			</g>
		</g>
		<g>
			<rect x="188.76" y="23.9" class="st1" width="0" height="54.04"/>
		</g>
		<circle class="st2" cx="188.39" cy="41.27" r="8.43"/>
	</g>
	<g>
		<path class="st1" d="M195.4,95.87l-0.42-9.75c-0.02-0.07-0.04-0.15-0.06-0.22l-0.14-0.33c-0.04-0.09-0.08-0.18-0.13-0.27
			l-0.06-0.12c-0.84-1.58-2.63-2.54-5.31-2.84c-0.05,0-0.1-0.01-0.15-0.01c-0.05,0-0.11,0.01-0.15,0.01
			c-0.07,0.01-0.14,0.02-0.22,0.03c-0.07-0.01-0.14-0.02-0.22-0.03c-0.05,0-0.1-0.01-0.15-0.01c-0.05,0-0.11,0.01-0.15,0.01
			c-2.68,0.3-4.47,1.26-5.31,2.84l-0.06,0.12c-0.05,0.09-0.09,0.18-0.13,0.27l-0.14,0.33c-0.02,0.07-0.04,0.14-0.06,0.22l-0.42,9.75
			l-0.05,0.74l-0.92,22.22c0.2,2.68,3.4,4.87,7.24,5.01c0.12,0,0.25-0.02,0.37-0.03c0.12,0.01,0.25,0.02,0.37,0.03
			c3.84-0.14,7.04-2.34,7.24-5.01l-0.92-22.22L195.4,95.87z"/>
		<path class="st1" d="M235.07,36.34c-0.3-0.02-0.58,0.09-0.77,0.29L217.61,42l3.94,0.41v0l-9.68-1h-2.77l0.58-4.18
			c0.81-1.47-2.68-4.73-6.78-7.62c-4.21-2.97-8.02-4.7-10.51-5.42c-0.76-0.16-2.16-0.29-3.28-0.29c-0.12,0-0.24,0-0.37,0.01
			c-0.13,0-0.25-0.01-0.37-0.01c-1.12,0.01-2.51,0.14-3.28,0.29c-2.49,0.72-6.3,2.45-10.51,5.42c-4.1,2.89-7.59,6.16-6.78,7.62
			l0.58,4.18h-2.77l-9.68,1v0L159.9,42l-16.69-5.37c-0.19-0.2-0.47-0.31-0.77-0.29c-0.52,0.04-0.91,0.51-0.91,1.03v2.56
			c0,0.56,0.46,1.07,1.02,1.05c0.23-0.01,0.44-0.1,0.61-0.25l6.65,1.87l-1.52,1.65c-0.72,0.78-0.5,2.04,0.44,2.53l21.76,5.63
			l1.13,3.65c0.12,0.37,0.35,0.7,0.67,0.93l7.26,5.33l-0.44,1.81c-2.79,11.44-3.48,23.38-2.04,35.48l2.15,1.22l0.21-4.99l0.06-0.83
			l0.23-9.52l0.02-0.14c0.04-0.19,0.47-1.89,0.52-2.07l0.22-0.52c0.06-0.13,0.12-0.28,0.2-0.42l0.08-0.15
			c1.3-2.44,3.87-3.89,7.65-4.31c0.13,0.01,0.25,0.03,0.37,0.05l0,0l0,0l0,0l0,0c0.12-0.02,0.24-0.03,0.37-0.05
			c3.77,0.42,6.35,1.87,7.65,4.31l0.08,0.15c0.07,0.14,0.14,0.28,0.2,0.42l0.22,0.52c0.05,0.18,0.49,1.88,0.52,2.07l0.02,0.14
			l0.23,9.52l0.06,0.83l0.21,4.99l2.15-1.22c1.44-12.1,0.75-24.04-2.04-35.48l-0.44-1.81l7.26-5.33c0.32-0.23,0.55-0.56,0.67-0.93
			l1.13-3.65l21.76-5.63c0.95-0.49,1.17-1.75,0.44-2.53l-1.52-1.65l6.65-1.87c0.16,0.14,0.37,0.24,0.61,0.25
			c0.56,0.02,1.02-0.48,1.02-1.05v-2.56C235.99,36.85,235.6,36.38,235.07,36.34z"/>
	</g>
	<circle class="st2" cx="188.76" cy="42.48" r="8.43"/>
</g>
</svg>
